<?xml version="1.0" encoding="utf-8"?>
<!-- Generator: Adobe Illustrator 25.2.1, SVG Export Plug-In . SVG Version: 6.00 Build 0)  -->
<svg version="1.1" id="Layer_1" xmlns="http://www.w3.org/2000/svg" xmlns:xlink="http://www.w3.org/1999/xlink" x="0px" y="0px"
	 viewBox="0 0 166 116" style="enable-background:new 0 0 166 116;" xml:space="preserve">
<style type="text/css">
	.st0{fill:#00A0E3;}
	.st1{fill:#8BC53F;}
	.st2{fill:#EB008B;}
</style>
<g>
	<path class="st0" d="M84.5,55c2,0,3.6,0.3,4.9,0.8h0c0.5-16.4,6.5-31.9,25.9-31.9c14.4,0,19.5,7.8,21.5,14.4H158
		c-2.3-16.7-17.2-30.9-42.4-30.9c-30.9,0-48.1,22.2-48.1,51.7c0,0,0,0,0,0l0,0C73.9,57.4,81.4,55,84.5,55"/>
	<path class="st0" d="M125.9,55.8c-0.1,2.3-0.7,4.9-1.7,7.7c-0.7,1.9-1.5,3.8-2.5,5.7h15.2v1c0,8.7-3.4,21.4-21.5,21.4
		c-2.3,0-4.4-0.2-6.4-0.7c-4.1,6.4-8.6,12.6-11.9,15.4c4.4,1.4,9.4,2.2,14.7,2.2c13.7,0,23.2-4,28.6-11.4c0.3,3.3,0.9,6.7,1.7,9.7
		h15.5l-0.5-51.1L125.9,55.8z"/>
	<path class="st0" d="M89.4,55.8C89.4,55.8,89.4,55.8,89.4,55.8L89.4,55.8C89.4,55.8,89.4,55.8,89.4,55.8"/>
	<path class="st1" d="M28.8,50.2h17.8c11.5,0,16.1-4.4,16.1-12.5c0-8-5.3-12.5-15.7-12.5H28.8V50.2z M28.8,67.1v39.3H8V8.3h43.1
		C72.5,8.3,84,20,84,35.2c0,13.1-7.1,20.2-14.2,23.2c3,1.5,9.6,5.7,14.2,23.1c0,0,6.3,17.8,13.2,24.9H75.4
		c-4.4-3.5-10.8-23.8-10.8-23.8C61.8,72,58.5,67.1,42.7,67.1L28.8,67.1L28.8,67.1z"/>
	<path class="st2" d="M101.7,88c0,0-7.7-4.1-10.7-16.1c-2.3-9-1.7-16.1-1.7-16.1h21.5C110.8,55.8,113.7,69.5,101.7,88"/>
</g>
</svg>
